<svg width="412" height="412" viewBox="0 0 412 412" fill="none" xmlns="http://www.w3.org/2000/svg">
<path d="M201 2.88675C204.094 1.10042 207.906 1.10042 211 2.88675L379.401 100.113C382.495 101.9 384.401 105.201 384.401 108.774V303.227C384.401 306.799 382.495 310.1 379.401 311.887L211 409.113C207.906 410.9 204.094 410.9 201 409.113L32.5988 311.887C29.5048 310.1 27.5988 306.799 27.5988 303.227V108.773C27.5988 105.201 29.5048 101.9 32.5988 100.113L201 2.88675Z" fill="white"/>
<path d="M369.626 292.694C371.867 293.988 371.867 297.174 369.626 298.468L211.395 389.822C208.301 391.608 204.489 391.608 201.395 389.822L43.165 298.468C40.9242 297.174 40.9242 293.988 43.165 292.694L201.395 201.34C204.489 199.553 208.301 199.553 211.395 201.34L369.626 292.694Z" fill="#5E3513"/>
<path d="M369.626 252.694C371.867 253.988 371.867 257.174 369.626 258.468L211.395 349.822C208.301 351.608 204.489 351.608 201.395 349.822L43.165 258.468C40.9242 257.174 40.9242 253.988 43.165 252.694L201.395 161.34C204.489 159.553 208.301 159.553 211.395 161.34L369.626 252.694Z" fill="#408558"/>
<path d="M369.626 252.694C371.867 253.988 371.867 257.174 369.626 258.468L211.395 349.822C208.301 351.608 204.489 351.608 201.395 349.822L43.165 258.468C40.9242 257.174 40.9242 253.988 43.165 252.694L201.395 161.34C204.489 159.553 208.301 159.553 211.395 161.34L369.626 252.694Z" fill="#408558"/>
<mask id="mask0_38_30" style="mask-type:alpha" maskUnits="userSpaceOnUse" x="41" y="160" width="331" height="192">
<path d="M369.626 252.694C371.867 253.988 371.867 257.174 369.626 258.468L211.395 349.822C208.301 351.608 204.489 351.608 201.395 349.822L43.165 258.468C40.9242 257.174 40.9242 253.988 43.165 252.694L201.395 161.34C204.489 159.553 208.301 159.553 211.395 161.34L369.626 252.694Z" fill="#408558"/>
</mask>
<g mask="url(#mask0_38_30)">
<rect x="92" y="207.981" width="30" height="246" transform="rotate(-60 92 207.981)" fill="#D9D9D9"/>
</g>
<circle cx="206.418" cy="185.708" r="29.0315" fill="white"/>
<path d="M245.915 143.604C256.338 154.01 262.299 168.056 262.538 182.772C262.777 197.487 257.275 211.719 247.196 222.457L245.915 223.78L219.151 250.499C215.755 253.888 211.196 255.861 206.397 256.019C201.598 256.177 196.919 254.507 193.307 251.349L192.399 250.499L165.628 223.773C154.981 213.142 149 198.723 149 183.689C149 168.654 154.981 154.235 165.628 143.604C176.275 132.973 190.715 127 205.772 127C220.828 127 235.268 132.973 245.915 143.604ZM205.772 164.792C203.287 164.792 200.826 165.281 198.53 166.231C196.234 167.18 194.148 168.572 192.39 170.327C190.633 172.082 189.239 174.165 188.288 176.457C187.337 178.75 186.848 181.207 186.848 183.689C186.848 186.17 187.337 188.627 188.288 190.92C189.239 193.212 190.633 195.295 192.39 197.05C194.148 198.805 196.234 200.197 198.53 201.146C200.826 202.096 203.287 202.585 205.772 202.585C210.79 202.585 215.604 200.594 219.153 197.05C222.702 193.506 224.695 188.7 224.695 183.689C224.695 178.677 222.702 173.871 219.153 170.327C215.604 166.783 210.79 164.792 205.772 164.792Z" fill="#CB444A"/>
</svg>
