<svg width="64" height="64" viewBox="0 0 64 64" fill="none" xmlns="http://www.w3.org/2000/svg">
<path d="M31.2233 0.448427C31.7039 0.170939 32.2961 0.17094 32.7767 0.448427L58.9361 15.5516C59.4167 15.8291 59.7128 16.3419 59.7128 16.8969V47.1031C59.7128 47.6581 59.4167 48.1709 58.9361 48.4484L32.7767 63.5516C32.2961 63.8291 31.7039 63.8291 31.2233 63.5516L5.06389 48.4484C4.58326 48.1709 4.28719 47.6581 4.28719 47.1031V16.8969C4.28719 16.3419 4.58326 15.8291 5.06389 15.5516L31.2233 0.448427Z" fill="white"/>
<path d="M57.4176 45.467C57.7657 45.668 57.7657 46.1629 57.4176 46.3639V46.3639L32.8381 60.5549C32.3575 60.8324 31.7653 60.8324 31.2847 60.5549L6.70525 46.3639V46.3639C6.35715 46.1629 6.35716 45.668 6.70525 45.467V45.467L31.2847 31.2761C31.7653 30.9986 32.3575 30.9986 32.8381 31.2761L57.4176 45.467V45.467Z" fill="#5E3513"/>
<path d="M57.4176 39.2535C57.7657 39.4544 57.7657 39.9493 57.4176 40.1503V40.1503L32.8381 54.3413C32.3575 54.6188 31.7653 54.6188 31.2847 54.3413L6.70525 40.1503V40.1503C6.35715 39.9493 6.35716 39.4544 6.70525 39.2534V39.2534L31.2847 25.0625C31.7653 24.785 32.3575 24.785 32.8381 25.0625L57.4176 39.2535V39.2535Z" fill="#408558"/>
<path d="M57.4176 39.2535C57.7657 39.4544 57.7657 39.9493 57.4176 40.1503V40.1503L32.8381 54.3413C32.3575 54.6188 31.7653 54.6188 31.2847 54.3413L6.70525 40.1503V40.1503C6.35715 39.9493 6.35716 39.4544 6.70525 39.2534V39.2534L31.2847 25.0625C31.7653 24.785 32.3575 24.785 32.8381 25.0625L57.4176 39.2535V39.2535Z" fill="#408558"/>
<mask id="mask0_38_96" style="mask-type:alpha" maskUnits="userSpaceOnUse" x="6" y="24" width="52" height="31">
<path d="M57.4176 39.2535C57.7657 39.4544 57.7657 39.9493 57.4176 40.1503V40.1503L32.8381 54.3413C32.3575 54.6188 31.7653 54.6188 31.2847 54.3413L6.70525 40.1503V40.1503C6.35715 39.9493 6.35716 39.4544 6.70525 39.2534V39.2534L31.2847 25.0625C31.7653 24.785 32.3575 24.785 32.8381 25.0625L57.4176 39.2535V39.2535Z" fill="#408558"/>
</mask>
<g mask="url(#mask0_38_96)">
<rect x="14.2913" y="32.3077" width="4.66019" height="38.2136" transform="rotate(-60 14.2913 32.3077)" fill="#D9D9D9"/>
</g>
<circle cx="32.0649" cy="28.8479" r="4.50975" fill="white"/>
<path d="M38.2004 22.3074C39.8195 23.9239 40.7455 26.1058 40.7826 28.3917C40.8197 30.6776 39.9651 32.8883 38.3993 34.5564L38.2004 34.7619L34.0428 38.9124C33.5153 39.4388 32.8071 39.7454 32.0617 39.7699C31.3163 39.7944 30.5894 39.5351 30.0283 39.0445L29.8872 38.9124L25.7286 34.7609C24.0748 33.1095 23.1456 30.8696 23.1456 28.5341C23.1456 26.1986 24.0748 23.9588 25.7286 22.3074C27.3825 20.6559 29.6256 19.7281 31.9645 19.7281C34.3034 19.7281 36.5466 20.6559 38.2004 22.3074ZM31.9645 25.5988C31.5785 25.5988 31.1962 25.6747 30.8396 25.8223C30.4829 25.9698 30.1589 26.186 29.8859 26.4586C29.6129 26.7311 29.3964 27.0547 29.2487 27.4108C29.1009 27.767 29.0249 28.1487 29.0249 28.5341C29.0249 28.9196 29.1009 29.3013 29.2487 29.6574C29.3964 30.0136 29.6129 30.3371 29.8859 30.6097C30.1589 30.8823 30.4829 31.0985 30.8396 31.246C31.1962 31.3935 31.5785 31.4694 31.9645 31.4694C32.7442 31.4694 33.4919 31.1602 34.0431 30.6097C34.5944 30.0592 34.9041 29.3126 34.9041 28.5341C34.9041 27.7556 34.5944 27.009 34.0431 26.4586C33.4919 25.9081 32.7442 25.5988 31.9645 25.5988Z" fill="#CB444A"/>
</svg>
