<svg width="155" height="155" viewBox="0 0 155 155" fill="none" xmlns="http://www.w3.org/2000/svg">
<path d="M75.6189 1.08604C76.7829 0.413996 78.2171 0.413994 79.3811 1.08603L142.736 37.664C143.9 38.336 144.617 39.578 144.617 40.9221V114.078C144.617 115.422 143.9 116.664 142.736 117.336L79.3811 153.914C78.2171 154.586 76.7829 154.586 75.6189 153.914L12.2641 117.336C11.1001 116.664 10.383 115.422 10.383 114.078V40.9221C10.383 39.578 11.1001 38.336 12.2641 37.664L75.6189 1.08604Z" fill="white"/>
<path d="M139.058 110.115C139.901 110.602 139.901 111.801 139.058 112.288V112.288L79.5298 146.656C78.3658 147.328 76.9317 147.328 75.7677 146.656L16.2393 112.288V112.288C15.3962 111.801 15.3962 110.602 16.2393 110.115V110.115L75.7677 75.7467C76.9317 75.0747 78.3658 75.0747 79.5298 75.7467L139.058 110.115V110.115Z" fill="#5E3513"/>
<path d="M139.058 95.0669C139.901 95.5537 139.901 96.7523 139.058 97.239V97.239L79.5298 131.608C78.3658 132.28 76.9317 132.28 75.7677 131.608L16.2393 97.239V97.239C15.3962 96.7523 15.3962 95.5537 16.2393 95.0669V95.0669L75.7677 60.6982C76.9317 60.0262 78.3658 60.0262 79.5298 60.6982L139.058 95.0669V95.0669Z" fill="#408558"/>
<path d="M139.058 95.0669C139.901 95.5537 139.901 96.7523 139.058 97.239V97.239L79.5298 131.608C78.3658 132.28 76.9317 132.28 75.7677 131.608L16.2393 97.239V97.239C15.3962 96.7523 15.3962 95.5537 16.2393 95.0669V95.0669L75.7677 60.6982C76.9317 60.0262 78.3658 60.0262 79.5298 60.6982L139.058 95.0669V95.0669Z" fill="#408558"/>
<mask id="mask0_38_47" style="mask-type:alpha" maskUnits="userSpaceOnUse" x="15" y="60" width="125" height="73">
<path d="M139.058 95.0669C139.901 95.5537 139.901 96.7523 139.058 97.239V97.239L79.5298 131.608C78.3658 132.28 76.9317 132.28 75.7677 131.608L16.2393 97.239V97.239C15.3962 96.7523 15.3962 95.5537 16.2393 95.0669V95.0669L75.7677 60.6982C76.9317 60.0262 78.3658 60.0262 79.5298 60.6982L139.058 95.0669V95.0669Z" fill="#408558"/>
</mask>
<g mask="url(#mask0_38_47)">
<rect x="34.6116" y="78.2452" width="11.2864" height="92.5485" transform="rotate(-60 34.6116 78.2452)" fill="#D9D9D9"/>
</g>
<circle cx="77.6572" cy="69.8659" r="10.922" fill="white"/>
<path d="M92.5166 54.0257C96.4378 57.9406 98.6805 63.2249 98.7704 68.7611C98.8603 74.2973 96.7904 79.6515 92.9984 83.6913L92.5166 84.1889L82.4475 94.241C81.1698 95.516 79.4547 96.2583 77.6494 96.3177C75.8441 96.3771 74.0837 95.7491 72.7248 94.5609L72.383 94.241L62.3115 84.1866C58.3061 80.187 56.0558 74.7624 56.0558 69.1061C56.0558 63.4498 58.3061 58.0252 62.3115 54.0257C66.317 50.0261 71.7495 47.7791 77.4141 47.7791C83.0786 47.7791 88.5112 50.0261 92.5166 54.0257ZM77.4141 61.9972C76.4791 61.9972 75.5534 62.181 74.6896 62.5383C73.8258 62.8956 73.041 63.4192 72.3799 64.0793C71.7188 64.7395 71.1944 65.5231 70.8366 66.3856C70.4788 67.2481 70.2947 68.1726 70.2947 69.1061C70.2947 70.0397 70.4788 70.9641 70.8366 71.8266C71.1944 72.6891 71.7188 73.4728 72.3799 74.1329C73.041 74.793 73.8258 75.3167 74.6896 75.6739C75.5534 76.0312 76.4791 76.2151 77.4141 76.2151C79.3022 76.2151 81.1131 75.4661 82.4482 74.1329C83.7834 72.7997 84.5334 70.9915 84.5334 69.1061C84.5334 67.2207 83.7834 65.4125 82.4482 64.0793C81.1131 62.7461 79.3022 61.9972 77.4141 61.9972Z" fill="#CB444A"/>
</svg>
